<?xml version="1.0" standalone="no"?><svg xmlns="http://www.w3.org/2000/svg" viewBox="0 0 1440 320"><path fill="#0099ff" fill-opacity="1" d="M0,160L15,160C30,160,60,160,90,170.7C120,181,150,203,180,197.3C210,192,240,160,270,128C300,96,330,64,360,96C390,128,420,224,450,234.7C480,245,510,171,540,154.7C570,139,600,181,630,176C660,171,690,117,720,106.7C750,96,780,128,810,133.3C840,139,870,117,900,117.3C930,117,960,139,990,149.3C1020,160,1050,160,1080,160C1110,160,1140,160,1170,154.7C1200,149,1230,139,1260,144C1290,149,1320,171,1350,170.7C1380,171,1410,149,1425,138.7L1440,128L1440,320L1425,320C1410,320,1380,320,1350,320C1320,320,1290,320,1260,320C1230,320,1200,320,1170,320C1140,320,1110,320,1080,320C1050,320,1020,320,990,320C960,320,930,320,900,320C870,320,840,320,810,320C780,320,750,320,720,320C690,320,660,320,630,320C600,320,570,320,540,320C510,320,480,320,450,320C420,320,390,320,360,320C330,320,300,320,270,320C240,320,210,320,180,320C150,320,120,320,90,320C60,320,30,320,15,320L0,320Z"></path></svg>